<svg width="105" height="13" viewBox="0 0 105 13" fill="none" xmlns="http://www.w3.org/2000/svg">
<path d="M11.108 4.28977H8.98295C8.92235 3.94129 8.81061 3.63258 8.64773 3.36364C8.48485 3.09091 8.2822 2.85985 8.03977 2.67045C7.79735 2.48106 7.52083 2.33901 7.21023 2.24432C6.90341 2.14583 6.57197 2.09659 6.21591 2.09659C5.58333 2.09659 5.02273 2.25568 4.53409 2.57386C4.04545 2.88826 3.66288 3.35038 3.38636 3.96023C3.10985 4.56629 2.97159 5.30682 2.97159 6.18182C2.97159 7.07197 3.10985 7.82197 3.38636 8.43182C3.66667 9.03788 4.04924 9.49621 4.53409 9.80682C5.02273 10.1136 5.58144 10.267 6.21023 10.267C6.55871 10.267 6.88447 10.2216 7.1875 10.1307C7.49432 10.036 7.76894 9.89773 8.01136 9.71591C8.25758 9.53409 8.46402 9.31061 8.63068 9.04545C8.80114 8.7803 8.91856 8.47727 8.98295 8.13636L11.108 8.14773C11.0284 8.70076 10.8561 9.2197 10.5909 9.70455C10.3295 10.1894 9.98674 10.6174 9.5625 10.9886C9.13826 11.3561 8.64205 11.6439 8.07386 11.8523C7.50568 12.0568 6.875 12.1591 6.18182 12.1591C5.15909 12.1591 4.24621 11.9223 3.44318 11.4489C2.64015 10.9754 2.00758 10.2917 1.54545 9.39773C1.08333 8.50379 0.852273 7.43182 0.852273 6.18182C0.852273 4.92803 1.08523 3.85606 1.55114 2.96591C2.01705 2.07197 2.65152 1.38826 3.45455 0.914772C4.25758 0.441287 5.16667 0.204545 6.18182 0.204545C6.82955 0.204545 7.43182 0.295454 7.98864 0.477272C8.54545 0.659091 9.04167 0.926136 9.47727 1.27841C9.91288 1.62689 10.2708 2.05492 10.5511 2.5625C10.8352 3.06629 11.0208 3.64205 11.108 4.28977ZM16.7543 12.1705C15.902 12.1705 15.1634 11.983 14.5384 11.608C13.9134 11.233 13.4285 10.7083 13.0838 10.0341C12.7429 9.35985 12.5724 8.57197 12.5724 7.67045C12.5724 6.76894 12.7429 5.97917 13.0838 5.30114C13.4285 4.62311 13.9134 4.09659 14.5384 3.72159C15.1634 3.34659 15.902 3.15909 16.7543 3.15909C17.6065 3.15909 18.3452 3.34659 18.9702 3.72159C19.5952 4.09659 20.0781 4.62311 20.419 5.30114C20.7637 5.97917 20.9361 6.76894 20.9361 7.67045C20.9361 8.57197 20.7637 9.35985 20.419 10.0341C20.0781 10.7083 19.5952 11.233 18.9702 11.608C18.3452 11.983 17.6065 12.1705 16.7543 12.1705ZM16.7656 10.5227C17.2277 10.5227 17.6141 10.3958 17.9247 10.142C18.2353 9.88447 18.4664 9.53977 18.6179 9.10795C18.7732 8.67614 18.8509 8.19508 18.8509 7.66477C18.8509 7.13068 18.7732 6.64773 18.6179 6.21591C18.4664 5.7803 18.2353 5.43371 17.9247 5.17614C17.6141 4.91856 17.2277 4.78977 16.7656 4.78977C16.2921 4.78977 15.8982 4.91856 15.5838 5.17614C15.2732 5.43371 15.0402 5.7803 14.8849 6.21591C14.7334 6.64773 14.6577 7.13068 14.6577 7.66477C14.6577 8.19508 14.7334 8.67614 14.8849 9.10795C15.0402 9.53977 15.2732 9.88447 15.5838 10.142C15.8982 10.3958 16.2921 10.5227 16.7656 10.5227ZM24.7386 6.88636V12H22.6818V3.27273H24.6477V4.75568H24.75C24.9508 4.26705 25.2708 3.87879 25.7102 3.59091C26.1534 3.30303 26.7008 3.15909 27.3523 3.15909C27.9545 3.15909 28.4792 3.28788 28.9261 3.54545C29.3769 3.80303 29.7254 4.17614 29.9716 4.66477C30.2216 5.15341 30.3447 5.74621 30.3409 6.44318V12H28.2841V6.76136C28.2841 6.17803 28.1326 5.72159 27.8295 5.39205C27.5303 5.0625 27.1155 4.89773 26.5852 4.89773C26.2254 4.89773 25.9053 4.97727 25.625 5.13636C25.3485 5.29167 25.1307 5.51705 24.9716 5.8125C24.8163 6.10795 24.7386 6.46591 24.7386 6.88636ZM36.7898 3.27273V4.86364H31.7727V3.27273H36.7898ZM33.0114 1.18182H35.0682V9.375C35.0682 9.65152 35.1098 9.86364 35.1932 10.0114C35.2803 10.1553 35.3939 10.2538 35.5341 10.3068C35.6742 10.3598 35.8295 10.3864 36 10.3864C36.1288 10.3864 36.2462 10.3769 36.3523 10.358C36.4621 10.339 36.5455 10.322 36.6023 10.3068L36.9489 11.9148C36.839 11.9527 36.6818 11.9943 36.4773 12.0398C36.2765 12.0852 36.0303 12.1117 35.7386 12.1193C35.2235 12.1345 34.7595 12.0568 34.3466 11.8864C33.9337 11.7121 33.6061 11.4432 33.3636 11.0795C33.125 10.7159 33.0076 10.2614 33.0114 9.71591V1.18182ZM41.0213 12.1761C40.4683 12.1761 39.9702 12.0777 39.527 11.8807C39.0876 11.6799 38.7391 11.3845 38.4815 10.9943C38.2277 10.6042 38.1009 10.1231 38.1009 9.55114C38.1009 9.05871 38.1918 8.65152 38.3736 8.32955C38.5554 8.00758 38.8035 7.75 39.1179 7.55682C39.4323 7.36364 39.7865 7.2178 40.1804 7.11932C40.5781 7.01705 40.9891 6.94318 41.4134 6.89773C41.9247 6.8447 42.3395 6.79735 42.6577 6.75568C42.9759 6.71023 43.2069 6.64205 43.3509 6.55114C43.4986 6.45644 43.5724 6.31061 43.5724 6.11364V6.07955C43.5724 5.65152 43.4455 5.32008 43.1918 5.08523C42.938 4.85038 42.5724 4.73295 42.0952 4.73295C41.5914 4.73295 41.1918 4.8428 40.8963 5.0625C40.6046 5.2822 40.4077 5.54167 40.3054 5.84091L38.3849 5.56818C38.5365 5.03788 38.7865 4.5947 39.1349 4.23864C39.4834 3.87879 39.9096 3.60985 40.4134 3.43182C40.9171 3.25 41.474 3.15909 42.0838 3.15909C42.5043 3.15909 42.9228 3.20833 43.3395 3.30682C43.7562 3.4053 44.1368 3.56818 44.4815 3.79545C44.8262 4.01894 45.1027 4.32386 45.3111 4.71023C45.5232 5.09659 45.6293 5.57955 45.6293 6.15909V12H43.652V10.8011H43.5838C43.4588 11.0436 43.2827 11.2708 43.0554 11.483C42.8319 11.6913 42.5497 11.8598 42.2088 11.9886C41.8717 12.1136 41.4759 12.1761 41.0213 12.1761ZM41.5554 10.6648C41.9683 10.6648 42.3262 10.5833 42.6293 10.4205C42.9323 10.2538 43.1652 10.0341 43.3281 9.76136C43.4948 9.48864 43.5781 9.19129 43.5781 8.86932V7.84091C43.5137 7.89394 43.4039 7.94318 43.2486 7.98864C43.0971 8.03409 42.9266 8.07386 42.7372 8.10795C42.5478 8.14205 42.3603 8.17235 42.1747 8.19886C41.9891 8.22538 41.8281 8.24811 41.6918 8.26705C41.3849 8.30871 41.1103 8.37689 40.8679 8.47159C40.6255 8.56629 40.4342 8.69886 40.294 8.86932C40.1539 9.03598 40.0838 9.25189 40.0838 9.51705C40.0838 9.89583 40.2221 10.1818 40.4986 10.375C40.7751 10.5682 41.1274 10.6648 41.5554 10.6648ZM51.5043 12.1705C50.633 12.1705 49.8849 11.9792 49.2599 11.5966C48.6387 11.214 48.1596 10.6856 47.8224 10.0114C47.4891 9.33333 47.3224 8.55303 47.3224 7.67045C47.3224 6.78409 47.4929 6.00189 47.8338 5.32386C48.1747 4.64205 48.6558 4.11174 49.277 3.73295C49.902 3.35038 50.6406 3.15909 51.4929 3.15909C52.2012 3.15909 52.8281 3.28977 53.3736 3.55114C53.9228 3.80871 54.3603 4.17424 54.6861 4.64773C55.0118 5.11742 55.1974 5.66667 55.2429 6.29545H53.277C53.1974 5.875 53.008 5.52462 52.7088 5.24432C52.4134 4.96023 52.0175 4.81818 51.5213 4.81818C51.1009 4.81818 50.7315 4.93182 50.4134 5.15909C50.0952 5.38258 49.8471 5.70455 49.669 6.125C49.4948 6.54545 49.4077 7.04924 49.4077 7.63636C49.4077 8.23106 49.4948 8.74242 49.669 9.17045C49.8433 9.5947 50.0876 9.92235 50.402 10.1534C50.7202 10.3807 51.0933 10.4943 51.5213 10.4943C51.8243 10.4943 52.0952 10.4375 52.3338 10.3239C52.5762 10.2064 52.7789 10.0379 52.9418 9.81818C53.1046 9.59848 53.2164 9.33144 53.277 9.01705H55.2429C55.1937 9.63447 55.0118 10.1818 54.6974 10.6591C54.383 11.1326 53.955 11.5038 53.4134 11.7727C52.8717 12.0379 52.2353 12.1705 51.5043 12.1705ZM61.2898 3.27273V4.86364H56.2727V3.27273H61.2898ZM57.5114 1.18182H59.5682V9.375C59.5682 9.65152 59.6098 9.86364 59.6932 10.0114C59.7803 10.1553 59.8939 10.2538 60.0341 10.3068C60.1742 10.3598 60.3295 10.3864 60.5 10.3864C60.6288 10.3864 60.7462 10.3769 60.8523 10.358C60.9621 10.339 61.0455 10.322 61.1023 10.3068L61.4489 11.9148C61.339 11.9527 61.1818 11.9943 60.9773 12.0398C60.7765 12.0852 60.5303 12.1117 60.2386 12.1193C59.7235 12.1345 59.2595 12.0568 58.8466 11.8864C58.4337 11.7121 58.1061 11.4432 57.8636 11.0795C57.625 10.7159 57.5076 10.2614 57.5114 9.71591V1.18182ZM74.4048 0.363636H76.5128V7.96591C76.5128 8.79924 76.3158 9.5322 75.9219 10.1648C75.5317 10.7973 74.9825 11.2917 74.2741 11.6477C73.5658 12 72.7382 12.1761 71.7912 12.1761C70.8404 12.1761 70.0109 12 69.3026 11.6477C68.5942 11.2917 68.045 10.7973 67.6548 10.1648C67.2647 9.5322 67.0696 8.79924 67.0696 7.96591V0.363636H69.1776V7.78977C69.1776 8.27462 69.2836 8.70644 69.4957 9.08523C69.7116 9.46402 70.0147 9.76136 70.4048 9.97727C70.795 10.1894 71.2571 10.2955 71.7912 10.2955C72.3253 10.2955 72.7874 10.1894 73.1776 9.97727C73.5715 9.76136 73.8745 9.46402 74.0866 9.08523C74.2988 8.70644 74.4048 8.27462 74.4048 7.78977V0.363636ZM85.6108 5.57955L83.7358 5.78409C83.6828 5.5947 83.59 5.41667 83.4574 5.25C83.3286 5.08333 83.1544 4.94886 82.9347 4.84659C82.715 4.74432 82.446 4.69318 82.1278 4.69318C81.6998 4.69318 81.34 4.78598 81.0483 4.97159C80.7604 5.1572 80.6184 5.39773 80.6222 5.69318C80.6184 5.94697 80.7112 6.15341 80.9006 6.3125C81.0938 6.47159 81.4119 6.60227 81.8551 6.70455L83.3438 7.02273C84.1695 7.20076 84.7831 7.48295 85.1847 7.86932C85.59 8.25568 85.7945 8.76136 85.7983 9.38636C85.7945 9.93561 85.6335 10.4205 85.3153 10.8409C85.0009 11.2576 84.5634 11.5833 84.0028 11.8182C83.4422 12.053 82.7983 12.1705 82.071 12.1705C81.0028 12.1705 80.143 11.947 79.4915 11.5C78.84 11.0492 78.4517 10.4223 78.3267 9.61932L80.3324 9.42614C80.4233 9.82008 80.6165 10.1174 80.9119 10.3182C81.2074 10.5189 81.5919 10.6193 82.0653 10.6193C82.554 10.6193 82.946 10.5189 83.2415 10.3182C83.5407 10.1174 83.6903 9.86932 83.6903 9.57386C83.6903 9.32386 83.5938 9.11742 83.4006 8.95455C83.2112 8.79167 82.9157 8.66667 82.5142 8.57955L81.0256 8.26705C80.1884 8.0928 79.5691 7.79924 79.1676 7.38636C78.7661 6.9697 78.5672 6.44318 78.571 5.80682C78.5672 5.26894 78.7131 4.80303 79.0085 4.40909C79.3078 4.01136 79.7225 3.70455 80.2528 3.48864C80.7869 3.26894 81.4025 3.15909 82.0994 3.15909C83.1222 3.15909 83.9271 3.37689 84.5142 3.8125C85.1051 4.24811 85.4706 4.83712 85.6108 5.57955ZM98.5881 12.4205L97.4176 11.2614L100.923 7.75568H92.4062V6.0625H100.923L97.4176 2.5625L98.5881 1.39773L104.099 6.90909L98.5881 12.4205Z" fill="black"/>
</svg>
