<svg width="18" height="16" viewBox="0 0 18 16" fill="none" xmlns="http://www.w3.org/2000/svg">
<path fill-rule="evenodd" clip-rule="evenodd" d="M0.599609 1.99999C0.599609 1.33725 1.13687 0.799988 1.79961 0.799988H16.1996C16.8624 0.799988 17.3996 1.33725 17.3996 1.99999C17.3996 2.66273 16.8624 3.19999 16.1996 3.19999H1.79961C1.13687 3.19999 0.599609 2.66273 0.599609 1.99999Z" fill="#101010"/>
<path fill-rule="evenodd" clip-rule="evenodd" d="M0.599609 7.99999C0.599609 7.33725 1.13687 6.79999 1.79961 6.79999H16.1996C16.8624 6.79999 17.3996 7.33725 17.3996 7.99999C17.3996 8.66273 16.8624 9.19999 16.1996 9.19999H1.79961C1.13687 9.19999 0.599609 8.66273 0.599609 7.99999Z" fill="#101010"/>
<path fill-rule="evenodd" clip-rule="evenodd" d="M7.79961 14C7.79961 13.3372 8.33687 12.8 8.99961 12.8H16.1996C16.8624 12.8 17.3996 13.3372 17.3996 14C17.3996 14.6627 16.8624 15.2 16.1996 15.2H8.99961C8.33687 15.2 7.79961 14.6627 7.79961 14Z" fill="#101010"/>
</svg>
