<svg width="152" height="20" viewBox="0 0 152 20" fill="none" xmlns="http://www.w3.org/2000/svg">
<g clip-path="url(#clip0_1_1315)">
<path d="M20 10C20 4.47715 15.5229 0 10 0C4.47715 0 0 4.47715 0 10C0 14.9912 3.65684 19.1283 8.4375 19.8785V12.8906H5.89844V10H8.4375V7.79688C8.4375 5.29063 9.93047 3.90625 12.2146 3.90625C13.3084 3.90625 14.4531 4.10156 14.4531 4.10156V6.5625H13.1922C11.95 6.5625 11.5625 7.3334 11.5625 8.125V10H14.3359L13.8926 12.8906H11.5625V19.8785C16.3432 19.1283 20 14.9912 20 10Z" fill="white"/>
</g>
<path d="M50.2918 18.1251C57.8371 18.1251 61.9652 11.8724 61.9652 6.45167C61.9652 6.27589 61.9613 6.0962 61.9535 5.92042C62.7566 5.33967 63.4496 4.62033 64 3.7962C63.2521 4.12896 62.458 4.34627 61.6449 4.44074C62.5011 3.92755 63.1421 3.12135 63.4492 2.17159C62.6438 2.64892 61.763 2.98563 60.8445 3.1673C60.2257 2.50976 59.4075 2.07439 58.5164 1.9285C57.6253 1.78261 56.711 1.93433 55.9148 2.3602C55.1186 2.78607 54.4848 3.46238 54.1115 4.28455C53.7382 5.10672 53.6462 6.02897 53.8496 6.9087C52.2187 6.82686 50.6233 6.40321 49.1667 5.6652C47.71 4.9272 46.4247 3.89132 45.3941 2.62472C44.8703 3.52782 44.71 4.59649 44.9459 5.61353C45.1817 6.63057 45.7959 7.51966 46.6637 8.10011C46.0122 8.07943 45.375 7.90402 44.8047 7.58839V7.63917C44.8041 8.58691 45.1317 9.50561 45.7319 10.2391C46.3321 10.9726 47.1678 11.4756 48.0969 11.6626C47.4934 11.8277 46.86 11.8518 46.2457 11.7329C46.5079 12.548 47.018 13.2609 47.7048 13.7721C48.3916 14.2833 49.2209 14.5673 50.077 14.5845C48.6237 15.726 46.8285 16.3452 44.9805 16.3423C44.6527 16.3418 44.3253 16.3217 44 16.2821C45.8774 17.4866 48.0613 18.1263 50.2918 18.1251Z" fill="white"/>
<g clip-path="url(#clip1_1_1315)">
<path d="M98 1.80078C100.672 1.80078 100.988 1.8125 102.039 1.85937C103.016 1.90234 103.543 2.06641 103.895 2.20313C104.359 2.38281 104.695 2.60156 105.043 2.94922C105.395 3.30078 105.609 3.63281 105.789 4.09766C105.926 4.44922 106.09 4.98047 106.133 5.95312C106.18 7.00781 106.191 7.32422 106.191 9.99219C106.191 12.6641 106.18 12.9805 106.133 14.0313C106.09 15.0078 105.926 15.5352 105.789 15.8867C105.609 16.3516 105.391 16.6875 105.043 17.0352C104.691 17.3867 104.359 17.6016 103.895 17.7813C103.543 17.918 103.012 18.082 102.039 18.125C100.984 18.1719 100.668 18.1836 98 18.1836C95.3281 18.1836 95.0117 18.1719 93.9609 18.125C92.9844 18.082 92.457 17.918 92.1055 17.7813C91.6406 17.6016 91.3047 17.3828 90.957 17.0352C90.6055 16.6836 90.3906 16.3516 90.2109 15.8867C90.0742 15.5352 89.9102 15.0039 89.8672 14.0313C89.8203 12.9766 89.8086 12.6602 89.8086 9.99219C89.8086 7.32031 89.8203 7.00391 89.8672 5.95312C89.9102 4.97656 90.0742 4.44922 90.2109 4.09766C90.3906 3.63281 90.6094 3.29688 90.957 2.94922C91.3086 2.59766 91.6406 2.38281 92.1055 2.20313C92.457 2.06641 92.9883 1.90234 93.9609 1.85937C95.0117 1.8125 95.3281 1.80078 98 1.80078ZM98 0C95.2852 0 94.9453 0.0117187 93.8789 0.0585938C92.8164 0.105469 92.0859 0.277344 91.4531 0.523438C90.793 0.78125 90.2344 1.12109 89.6797 1.67969C89.1211 2.23438 88.7813 2.79297 88.5234 3.44922C88.2773 4.08594 88.1055 4.8125 88.0586 5.875C88.0117 6.94531 88 7.28516 88 10C88 12.7148 88.0117 13.0547 88.0586 14.1211C88.1055 15.1836 88.2773 15.9141 88.5234 16.5469C88.7813 17.207 89.1211 17.7656 89.6797 18.3203C90.2344 18.875 90.793 19.2188 91.4492 19.4727C92.0859 19.7188 92.8125 19.8906 93.875 19.9375C94.9414 19.9844 95.2813 19.9961 97.9961 19.9961C100.711 19.9961 101.051 19.9844 102.117 19.9375C103.18 19.8906 103.91 19.7188 104.543 19.4727C105.199 19.2188 105.758 18.875 106.313 18.3203C106.867 17.7656 107.211 17.207 107.465 16.5508C107.711 15.9141 107.883 15.1875 107.93 14.125C107.977 13.0586 107.988 12.7188 107.988 10.0039C107.988 7.28906 107.977 6.94922 107.93 5.88281C107.883 4.82031 107.711 4.08984 107.465 3.45703C107.219 2.79297 106.879 2.23438 106.32 1.67969C105.766 1.125 105.207 0.78125 104.551 0.527344C103.914 0.28125 103.188 0.109375 102.125 0.0625C101.055 0.0117188 100.715 0 98 0Z" fill="white"/>
<path d="M98 4.86328C95.1641 4.86328 92.8633 7.16406 92.8633 10C92.8633 12.8359 95.1641 15.1367 98 15.1367C100.836 15.1367 103.137 12.8359 103.137 10C103.137 7.16406 100.836 4.86328 98 4.86328ZM98 13.332C96.1602 13.332 94.668 11.8398 94.668 10C94.668 8.16016 96.1602 6.66797 98 6.66797C99.8398 6.66797 101.332 8.16016 101.332 10C101.332 11.8398 99.8398 13.332 98 13.332Z" fill="white"/>
<path d="M104.539 4.66016C104.539 5.32422 104 5.85938 103.34 5.85938C102.676 5.85938 102.141 5.32031 102.141 4.66016C102.141 3.99609 102.68 3.46094 103.34 3.46094C104 3.46094 104.539 4 104.539 4.66016Z" fill="white"/>
</g>
<g clip-path="url(#clip2_1_1315)">
<path d="M150.52 0H133.477C132.66 0 132 0.644531 132 1.44141V18.5547C132 19.3516 132.66 20 133.477 20H150.52C151.336 20 152 19.3516 152 18.5586V1.44141C152 0.644531 151.336 0 150.52 0ZM137.934 17.043H134.965V7.49609H137.934V17.043ZM136.449 6.19531C135.496 6.19531 134.727 5.42578 134.727 4.47656C134.727 3.52734 135.496 2.75781 136.449 2.75781C137.398 2.75781 138.168 3.52734 138.168 4.47656C138.168 5.42188 137.398 6.19531 136.449 6.19531ZM149.043 17.043H146.078V12.4023C146.078 11.2969 146.059 9.87109 144.535 9.87109C142.992 9.87109 142.758 11.0781 142.758 12.3242V17.043H139.797V7.49609H142.641V8.80078H142.68C143.074 8.05078 144.043 7.25781 145.484 7.25781C148.488 7.25781 149.043 9.23438 149.043 11.8047V17.043Z" fill="white"/>
</g>
<defs>
<clipPath id="clip0_1_1315">
<rect width="20" height="20" fill="white"/>
</clipPath>
<clipPath id="clip1_1_1315">
<rect width="20" height="20" fill="white" transform="translate(88)"/>
</clipPath>
<clipPath id="clip2_1_1315">
<rect width="20" height="20" fill="white" transform="translate(132)"/>
</clipPath>
</defs>
</svg>
